<svg width="24" height="24" viewBox="0 0 24 24" fill="none" xmlns="http://www.w3.org/2000/svg">
<path d="M10 15L10 12" stroke="#C71010" stroke-width="1.37116" stroke-linecap="round"/>
<path d="M14 15L14 12" stroke="#C71010" stroke-width="1.37116" stroke-linecap="round"/>
<path d="M3 7H21H20.7423C19.4496 7 18.8032 7 18.4016 7.4016C18 7.80321 18 8.44958 18 9.74232V17.2577C18 18.5504 18 19.1968 17.5984 19.5984C17.1968 20 16.5504 20 15.2577 20H8.74232C7.44958 20 6.80321 20 6.4016 19.5984C6 19.1968 6 18.5504 6 17.2577V9.74232C6 8.44958 6 7.80321 5.5984 7.4016C5.19679 7 4.55042 7 3.25768 7H3Z" stroke="#C71010" stroke-width="1.37116" stroke-linecap="round"/>
<path d="M10.0681 3.37059C10.1821 3.26427 10.4332 3.17033 10.7825 3.10332C11.1318 3.03632 11.5597 3 12 3C12.4403 3 12.8682 3.03632 13.2175 3.10332C13.5668 3.17033 13.8179 3.26427 13.9319 3.37059" stroke="#C71010" stroke-width="1.37116" stroke-linecap="round"/>
</svg>
