<svg width="394" height="147" viewBox="0 0 394 147" fill="none" xmlns="http://www.w3.org/2000/svg">
<g clip-path="url(#clip0_440_114)">
<circle cx="72.6479" cy="73.0363" r="73.0363" fill="white"/>
<path d="M143.792 91.5091C143.924 92.1268 143.439 92.6552 143.544 93.269C142.759 95.3513 142.157 97.4919 141.286 99.5509C140.746 100.833 140.172 102.119 139.705 103.432C139.294 104.594 138.757 105.705 138.155 106.742C137.137 108.494 136.193 110.293 135.106 112.014C134.29 113.307 133.447 114.597 132.553 115.821C131.632 117.08 130.696 118.35 129.671 119.543C129.072 120.242 128.377 120.875 127.884 121.691C127.413 122.464 126.462 122.856 126.089 123.746C125.152 124.177 124.846 125.246 123.933 125.774C123.09 126.264 122.538 127.223 121.741 127.825C120.685 128.626 119.815 129.628 118.738 130.397C117.449 131.318 116.132 132.204 114.896 133.194C114.228 133.73 113.482 134.134 112.798 134.636C112.138 135.121 111.412 135.56 110.685 135.968C109.582 136.582 108.475 137.188 107.367 137.798C106.924 138.043 106.493 138.311 106.039 138.524C104.508 139.235 102.97 139.923 101.435 140.626C100.029 141.267 98.5641 141.76 97.0995 142.246C96.1088 142.576 95.1182 142.903 94.1198 143.213C93.1213 143.524 92.119 143.835 91.109 144.08C90.3359 144.266 89.5744 144.616 88.7508 144.585C88.4517 144.915 88.0477 144.853 87.6864 144.806C87.2823 144.752 87.0182 145.059 86.618 145.082C85.4758 145.152 84.3686 145.575 83.1993 145.517C82.6554 145.999 81.9483 145.572 81.3578 145.855C80.744 146.15 80.0603 145.855 79.4348 145.995C77.6516 146.395 75.849 146.17 74.0542 146.209C72.271 146.248 70.484 146.181 68.6969 146.236C68.1103 146.255 67.6052 145.987 67.0458 145.983C66.4631 145.983 65.8648 146.065 65.3054 145.952C64.9519 145.882 64.61 145.75 64.2331 145.739C63.868 145.727 63.4989 145.867 63.1259 145.603C62.8152 145.381 62.3723 145.494 62.0032 145.537C61.6613 145.575 61.4904 145.249 61.1641 145.272C60.8805 145.296 60.6085 145.272 60.2977 145.125C59.816 144.888 59.1789 145.191 58.6777 144.822C57.7725 144.884 56.9489 144.472 56.0865 144.301C55.3289 144.15 54.5481 143.909 53.7905 143.699C52.085 143.221 50.3951 142.724 48.7285 142.13C47.1395 141.562 45.6011 140.871 44.0316 140.261C41.9454 139.449 39.9874 138.384 38.0255 137.343C36.6542 136.617 35.2905 135.836 34.0085 134.927C33.3675 134.472 32.641 134.103 31.9884 133.649C30.9899 132.957 30.011 132.235 29.0242 131.524C27.9675 130.762 27.0545 129.818 25.9396 129.134C25.8735 129.096 25.8308 129.022 25.7725 128.971C23.4416 126.947 21.2388 124.783 19.141 122.53C18.0532 121.357 17.0004 120.133 16.0408 118.832C15.493 118.086 14.9181 117.34 14.3198 116.637C13.5972 115.786 13.0378 114.834 12.4084 113.925C11.5615 112.697 10.7768 111.423 9.97646 110.161C9.7861 109.858 9.64624 109.523 9.47919 109.205C8.70998 107.736 7.87861 106.303 7.19098 104.799C6.31299 102.876 5.37284 100.981 4.6891 98.9682C4.29672 97.8143 3.81888 96.6838 3.48089 95.5145C3.10794 94.2325 2.66506 92.9737 2.35038 91.6723C2.1639 90.907 2.22218 90.0756 1.75987 89.3569C1.50735 88.9645 1.84146 88.3779 1.44908 87.9777C1.47239 86.89 0.897423 85.8915 0.982891 84.796C0.613825 84.2443 0.947927 83.5489 0.710947 83.0517C0.415694 82.434 0.683753 81.8318 0.501162 81.2724C0.202024 80.34 0.454543 79.3649 0.252528 78.4636C-0.108769 76.8591 0.112671 75.2624 0.062167 73.6657C0.0116632 72.0379 -0.0621502 70.3985 0.0932463 68.7824C0.186484 67.8034 0.16706 66.8127 0.322456 65.8571C0.423464 65.2238 0.477853 64.6022 0.524472 63.969C0.574975 63.3396 0.660443 62.6947 0.79253 62.0965C1.01786 61.067 1.17714 60.018 1.39081 58.9885C1.64721 57.7764 1.88031 56.5449 2.1639 55.3367C2.42031 54.2528 2.70391 53.1689 3.05743 52.1045C3.46535 50.8768 3.78391 49.6181 4.24233 48.406C4.5842 47.5008 4.89111 46.5801 5.27572 45.6944C6.26637 43.4256 7.22206 41.1374 8.43804 38.9735C9.14898 37.7109 9.82107 36.4366 10.5942 35.2051C11.2701 34.129 11.8723 33.0101 12.626 31.9806C13.3641 30.9705 14.0945 29.9527 14.8171 28.931C15.5474 27.8976 16.3827 26.9497 17.1519 25.9512C17.723 25.2092 18.3679 24.4944 19.0283 23.8145C20.59 22.1945 22.2178 20.6367 23.7834 19.0244C24.1836 18.6126 24.7119 18.3912 25.1043 17.9716C25.4617 17.5948 25.8269 17.2335 26.297 16.946C26.8642 16.6003 27.3342 16.0797 27.8471 15.6368C29.3427 14.3548 30.9861 13.2864 32.5905 12.1598C33.9891 11.1769 35.5003 10.365 36.93 9.42094C37.4622 9.06741 38.1032 8.88093 38.6743 8.58179C39.5678 8.10784 40.407 7.51344 41.3316 7.12495C42.7185 6.54222 44.1481 6.01387 45.4846 5.35343C46.9492 4.63084 48.5381 4.30062 50.0066 3.60522C50.9972 3.13515 52.1316 2.91371 53.2116 2.64953C53.9847 2.45917 54.7151 1.96579 55.5698 2.14061C56.2147 1.67442 57.0849 1.9114 57.7259 1.44133C58.8176 1.50348 59.8277 1.0373 60.9077 0.932403C61.4904 0.878014 62.0887 0.808085 62.6753 0.726502C63.2269 0.652689 63.8213 0.633264 64.3147 0.466213C65.0801 0.205924 65.8337 0.419594 66.5602 0.264198C68.5027 -0.155373 70.4568 0.104916 72.407 0.0544125C74.3456 0.00779359 76.288 0.0816069 78.2305 0.0233332C78.8559 0.00390868 79.3921 0.283622 79.9981 0.295277C80.5886 0.306932 81.1636 0.198154 81.7852 0.466213C82.2902 0.687653 82.9545 0.62161 83.5373 0.691538C84.2404 0.773121 84.9436 0.905208 85.6429 1.00233C86.3189 1.09557 87.0065 1.2937 87.6747 1.39471C88.5177 1.51902 89.3102 1.81428 90.1494 1.93083C90.9303 2.03572 91.7344 2.16004 92.4259 2.6068C94.4344 2.80105 96.2526 3.68292 98.1406 4.2812C99.1468 4.59976 100.149 5.04264 101.14 5.46609C103.424 6.43732 105.666 7.48625 107.849 8.66726C108.898 9.23446 109.947 9.80554 110.957 10.4349C112.196 11.208 113.404 12.0316 114.613 12.8552C115.615 13.5389 116.629 14.211 117.581 14.9608C119.333 16.3361 121.128 17.6686 122.643 19.3197C122.93 19.6344 123.567 19.5839 123.544 20.2016C124.045 20.3492 124.329 20.7726 124.682 21.1068C125.02 21.4292 125.382 21.7322 125.665 22.0974C126.508 23.1929 127.573 24.0865 128.455 25.1354C129.943 26.8992 131.399 28.6979 132.724 30.5821C133.513 31.7048 134.231 32.8975 134.981 34.0513C135.836 35.3644 136.551 36.7552 137.417 38.0644C138.202 39.2532 138.785 40.5935 139.356 41.9105C140.199 43.849 141.053 45.7837 141.733 47.7961C142.11 48.915 142.522 50.0299 142.91 51.1488C143.108 51.7276 143.12 52.3686 143.462 52.897C143.808 53.4292 143.68 54.0974 144.006 54.6569C144.157 54.9171 144.033 55.3367 144.033 55.6825H114.247C114.232 55.8612 114.216 55.97 114.216 56.0826C114.216 67.5586 114.216 79.0347 114.216 90.5146C114.216 90.67 114.201 90.8254 114.216 90.9808C114.259 91.3149 114.422 91.5363 114.795 91.5363C115.028 91.5363 115.261 91.5363 115.495 91.5363H128.183C132.841 91.5363 137.495 91.5363 142.153 91.5363C142.561 91.5363 142.988 91.614 143.338 91.3032C143.493 91.3809 143.649 91.4586 143.804 91.5363L143.792 91.5091ZM27.074 91.4742C27.2449 91.4897 27.3537 91.5091 27.4625 91.5091C30.8773 91.5091 34.2921 91.5091 37.707 91.5091C37.8624 91.5091 38.0216 91.5286 38.1732 91.5052C38.4995 91.4547 38.7287 91.2955 38.7209 90.9225C38.7209 90.6506 38.7209 90.3786 38.7209 90.1067V63.0016C38.7209 60.9077 38.7209 58.8137 38.7209 56.7197C38.7209 55.6786 38.7054 55.663 37.7147 55.6592C36.5104 55.6553 35.31 55.6592 34.1057 55.6592H27.074V56.8441C27.074 60.1773 27.074 63.5145 27.074 66.8477C27.074 67.6519 26.9652 67.7607 26.1571 67.7645C22.8977 67.7684 19.6382 67.7645 16.3788 67.7645C16.2351 67.7645 16.0719 67.8267 15.8621 67.6247V55.7019H4.30061V91.513C7.88638 91.513 11.4139 91.513 14.9453 91.513C15.8427 91.513 15.8932 91.4586 15.8932 90.5146C15.8932 87.7213 15.8932 84.932 15.8932 82.1387V77.6361C16.0058 77.5973 16.0719 77.5506 16.1379 77.5506C19.5139 77.5506 22.8899 77.5506 26.2659 77.5506C26.3824 77.5506 26.5029 77.5312 26.6155 77.5506C26.8603 77.5973 27.0312 77.7604 27.0662 77.9935C27.105 78.2577 27.074 78.5335 27.074 78.8055V91.4781V91.4742ZM79.4931 73.4443C79.4154 72.5935 79.5008 71.6261 79.3027 70.6316C79.0347 69.2719 78.7627 67.9277 78.347 66.5991C77.5934 64.1749 76.3075 62.0887 74.6175 60.2317C74.0037 59.5596 73.3394 58.9458 72.5896 58.4019C71.1405 57.3491 69.6254 56.4517 67.9199 55.8923C66.9487 55.5737 66.0008 55.1658 64.948 55.193C64.5362 54.7423 63.9729 55.1153 63.5377 54.9405C63.0638 54.754 62.6015 54.7035 62.112 54.7268C60.6707 54.7967 59.2177 54.5714 57.7764 54.9366C57.2481 55.0725 56.6809 54.9599 56.1214 55.1658C55.5853 55.3639 55.0065 55.4571 54.447 55.6164C53.0834 56.0088 51.8092 56.5643 50.5893 57.2753C49.4627 57.9318 48.3555 58.6 47.4697 59.5868C47.159 59.9326 46.821 60.2511 46.483 60.5775C45.4574 61.5642 44.7775 62.7919 44.0704 64.0001C43.5771 64.8431 43.2857 65.7716 42.9516 66.6768C42.602 67.6286 42.3533 68.6464 42.2601 69.6332C42.1668 70.6044 41.9571 71.5718 41.9726 72.5585C41.9881 73.6541 42.0853 74.7496 42.1591 75.8413C42.2562 77.2981 42.5359 78.7006 42.9205 80.0836C43.3867 81.7502 44.0782 83.3314 45.0028 84.8038C45.6205 85.7905 46.5956 86.4937 47.1784 87.5116C47.8349 87.8495 48.2273 88.5177 48.8217 88.8907C50.6243 90.0251 52.4114 91.2178 54.6024 91.5091C56.2574 92.2628 58.0756 92.1152 59.8082 92.4221C61.2107 92.6707 62.6015 92.0647 64.0156 92.2045C64.7343 91.8899 65.5501 92.0297 66.265 91.7306C67.0963 91.3848 67.9782 91.2061 68.8057 90.837C69.6293 90.468 70.4451 90.0989 71.2182 89.6366C72.0574 89.1316 72.7294 88.3895 73.5258 87.8729C74.5864 87.1813 75.2274 86.1751 75.9578 85.2505C76.8241 84.1511 77.3991 82.8574 77.9663 81.556C78.8443 79.5436 79.124 77.4302 79.4659 75.3168C79.5591 74.7496 79.4814 74.1552 79.4814 73.4482L79.4931 73.4443ZM110.945 83.1294C105.93 83.1294 101.043 83.1177 96.1555 83.1371C94.9434 83.141 94.8618 83.1255 94.8657 81.8823C94.8812 73.5492 94.8734 65.2122 94.8734 56.879V55.7058H83.2809V91.513H109.76C109.916 91.513 110.071 91.5169 110.227 91.513C110.782 91.4897 110.945 91.3382 110.945 90.7516C110.953 88.238 110.945 85.7245 110.945 83.1333V83.1294Z" fill="#028752"/>
<path d="M143.326 55.663H144.025C148.334 55.663 152.642 55.663 156.95 55.6591C157.343 55.6591 157.436 55.7407 157.58 56.1797C158.019 57.52 158.322 58.8953 158.718 60.2433C158.963 61.0747 159.149 61.9294 159.433 62.7413C159.775 63.732 159.973 64.7576 160.307 65.7482C160.583 66.5641 160.793 67.411 161.033 68.2424C161.282 69.1087 161.48 69.9945 161.741 70.8608C162.242 72.5196 162.669 74.1979 163.155 75.8607C163.314 76.4084 163.329 77.0145 163.702 77.504C164.227 76.8202 164.297 75.9461 164.51 75.1458C164.907 73.6424 165.319 72.1428 165.742 70.6471C166.115 69.3301 166.515 68.017 166.88 66.6962C167.082 65.9736 167.261 65.2393 167.533 64.5284C167.879 63.6193 167.937 62.6054 168.287 61.6963C168.551 61.0087 168.675 60.3016 168.846 59.6023C169.021 58.8991 169.367 58.2581 169.448 57.5161C169.503 57.0383 169.852 56.607 169.907 56.0787C169.93 55.834 170.167 55.6319 170.493 55.6591C170.687 55.6747 170.882 55.6591 171.076 55.6591H183.185C183.418 55.6591 183.655 55.6319 183.885 55.6669C184.122 55.7019 184.296 55.8728 184.327 56.1137C184.358 56.3429 184.335 56.5799 184.335 56.8091V90.3164C184.335 90.5107 184.347 90.7049 184.335 90.8992C184.308 91.3032 184.118 91.5013 183.698 91.5052C182.766 91.5207 181.833 91.5091 180.905 91.5091H173.624V90.3397C173.624 86.7734 173.683 83.2032 173.601 79.6368C173.555 77.6011 173.986 75.5965 173.858 73.5686C174.219 72.6556 174.048 71.696 174.098 70.7559C174.126 70.247 174.545 69.7847 174.227 69.2214C173.955 69.1942 174.164 69.5632 173.962 69.6604C173.757 69.7575 173.838 70.0216 173.873 70.1887C173.931 70.4684 173.64 70.5617 173.624 70.7909C173.57 71.7116 173.151 72.5352 172.914 73.4054C172.688 74.2407 172.506 75.0876 172.249 75.9189C171.962 76.8513 171.74 77.8187 171.468 78.7472C171.212 79.629 171.014 80.5536 170.641 81.4239C170.427 81.925 170.291 82.5233 170.163 83.0788C170.039 83.615 169.872 84.12 169.716 84.6406C169.553 85.1922 169.332 85.7633 169.254 86.2994C169.149 87.0376 168.838 87.7019 168.687 88.4167C168.543 89.1004 168.419 89.8347 168.042 90.4679C167.991 90.5534 168.05 90.6971 168.034 90.8137C167.956 91.3654 167.84 91.5052 167.366 91.5091C164.922 91.5169 162.475 91.5091 160.031 91.5208C159.72 91.5208 159.716 91.3576 159.608 91.1439C159.293 90.5223 159.142 89.8347 158.994 89.1937C158.574 87.395 157.894 85.6701 157.518 83.8558C157.339 82.9934 157.009 82.1309 156.764 81.2685C156.399 79.9826 156.037 78.6967 155.668 77.4107C155.327 76.2297 155.039 75.041 154.693 73.8638C154.316 72.5818 153.936 71.3037 153.613 70.01C153.532 69.6875 153.322 69.4778 153.256 69.1398C153.05 69.3651 153.081 69.6021 153.143 69.7419C153.485 70.5073 153.376 71.3114 153.345 72.0923C153.322 72.7061 153.703 73.2306 153.613 73.8599C153.532 74.431 153.446 75.072 153.629 75.5926C153.947 76.5017 153.811 77.403 153.819 78.3004C153.843 82.2941 153.831 86.2878 153.831 90.2815V91.5091H143.812C143.656 91.4314 143.501 91.3537 143.345 91.276V55.6591L143.326 55.663Z" fill="white"/>
<path d="M353.201 74.6058C353.818 74.9904 354.475 75.1886 355.1 75.4489C356.309 75.95 357.253 76.7969 357.87 77.9236C358.228 78.5762 358.356 79.3493 358.593 80.0641C358.849 80.8295 358.838 81.6181 358.826 82.4106C358.814 83.4207 358.884 84.4308 358.807 85.437C358.706 86.7423 359.141 88.001 359.067 89.2986C359.036 89.8192 359.417 90.231 359.871 90.3087C360.415 90.4058 360.197 90.7399 360.209 90.9885C360.225 91.2915 360.019 91.4702 359.72 91.5052C359.568 91.5246 359.409 91.5052 359.253 91.5052H349.121C348.927 91.5052 348.717 91.5518 348.543 91.4935C348.376 91.4353 348.119 91.2605 348.127 91.1556C348.162 90.7243 347.913 90.3592 347.886 89.9707C347.766 88.1448 347.494 86.3189 347.649 84.4813C347.727 83.5606 347.56 82.667 347.381 81.789C347.233 81.0742 346.791 80.3944 346.192 79.9787C345.648 79.598 344.961 79.2561 344.32 79.2133C343.224 79.1395 342.156 78.8287 341.041 78.922C340.007 79.0074 338.962 78.9414 337.879 78.9414V91.4625H326.235V55.6591H327.378C333.628 55.6591 339.879 55.6086 346.13 55.6902C347.921 55.7135 349.72 55.9738 351.476 56.5255C352.439 56.8285 353.403 57.0888 354.335 57.5045C356.561 58.4951 357.824 60.2861 358.519 62.4966C358.709 63.0987 358.869 63.7825 358.842 64.4662C358.803 65.317 358.892 66.1795 358.822 67.0264C358.62 69.47 357.75 71.63 355.8 73.2112C355.046 73.8172 354.149 74.2407 353.212 74.602L353.201 74.6058ZM337.879 71.024C339.965 71.024 341.942 70.9812 343.92 71.0473C344.584 71.0706 345.206 70.9152 345.792 70.752C346.678 70.5111 347.47 69.975 347.855 69.0582C348.364 67.8383 347.983 66.1795 347.051 65.181C346.352 64.4351 345.4 64.1282 344.495 64.0777C342.3 63.9573 340.097 64.0389 337.882 64.0389V71.024H337.879Z" fill="white"/>
<path d="M319.686 69.1631C319.686 71.7232 319.689 74.1979 319.686 76.6765C319.686 77.4535 319.6 77.5389 318.835 77.5389C315.886 77.5428 312.934 77.5389 309.985 77.5389H304.775C304.775 79.2133 304.767 80.8722 304.779 82.5272C304.779 82.9234 304.997 83.1021 305.428 83.1255C305.661 83.1371 305.894 83.1255 306.127 83.1255H322.914V91.4508H293.163V55.7096H322.218V64.0156H304.779C304.779 65.5229 304.771 66.9487 304.779 68.3783C304.783 69.0232 304.927 69.1553 305.595 69.1592C308.077 69.1631 310.564 69.1592 313.046 69.1592H319.686V69.1631Z" fill="white"/>
<path d="M361.386 80.3361H366.316C368.181 80.3361 370.046 80.3905 371.907 80.305C372.493 80.2778 372.652 80.6041 372.781 80.9344C372.952 81.3734 373.126 81.8357 373.402 82.1853C374.113 83.0749 375.084 83.5411 376.195 83.8597C377.264 84.1627 378.324 84.1044 379.366 84.0229C380.244 83.9568 381.149 83.7004 381.864 83.0478C383.068 81.9483 382.773 80.4177 381.479 79.6601C380.492 79.0813 379.404 78.6811 378.251 78.4558C377.544 78.3159 376.809 78.18 376.145 77.9274C375.461 77.6671 374.684 77.7643 374.07 77.3136C372.559 77.2243 371.188 76.591 369.789 76.1171C368.391 75.6431 367.105 74.9089 365.865 74.0425C364.424 73.0363 363.601 71.6494 362.769 70.2003C362.517 69.7652 362.524 69.2874 362.396 68.8445C362.019 67.5275 362.031 66.1484 362.085 64.7809C362.556 64.3807 362.272 63.7941 362.435 63.3007C362.777 62.2674 363.127 61.2301 363.744 60.356C364.242 59.6567 364.607 58.802 365.493 58.398C365.846 58.2387 366.145 57.9046 366.456 57.6521C367.944 56.4516 369.669 55.8611 371.483 55.4221C372.419 55.1968 373.363 55.0608 374.311 54.9093C375.224 54.7617 376.118 54.7695 377.019 54.7384C377.913 54.7073 378.829 54.5985 379.692 54.7617C380.919 54.9948 382.174 54.9793 383.39 55.3716C384.525 55.7368 385.671 56.0709 386.704 56.6537C388.569 57.7104 390.216 59.0196 391.218 60.997C391.657 61.8633 392.05 62.7452 392.415 63.6426C392.598 64.0855 392.543 64.5672 392.811 64.9984C392.967 65.2471 392.838 65.6783 392.838 66.0357C392.559 66.2377 392.24 66.129 391.945 66.129C388.841 66.1406 385.733 66.1367 382.629 66.1328C381.926 66.1328 381.953 66.1134 381.65 65.3908C381.203 64.338 380.337 63.7436 379.307 63.3396C378.468 63.0094 377.59 63.1181 376.724 63.1104C376.009 63.1026 375.302 63.0871 374.603 63.3318C373.861 63.5921 373.437 64.1593 373.332 64.8431C373.282 65.1772 373.433 65.6667 373.736 66.0357C374.474 66.9409 375.453 67.4304 376.526 67.7528C378.052 68.2113 379.599 68.5998 381.16 68.9455C382.532 69.2485 383.88 69.672 385.22 70.0993C386.976 70.6588 388.604 71.5173 390.173 72.4652C390.675 72.7683 391.176 73.1995 391.533 73.6307C392.147 74.3766 392.831 75.1148 393.145 76.0899C393.406 76.8863 393.705 77.6477 393.81 78.5024C393.876 79.0502 394.008 79.5979 393.996 80.1574C393.984 80.6003 394.039 81.0315 393.79 81.4705C393.584 81.8395 393.981 82.3873 393.549 82.7641C393.596 83.8403 393.075 84.7183 392.613 85.6351C391.918 87.0181 391.079 87.865 389.719 88.98C389.136 89.4579 388.503 89.8463 387.885 90.2271C387.104 90.7088 386.184 90.9963 385.294 91.2605C384.284 91.5596 383.266 91.8276 382.217 92.0102C381.156 92.1928 380.092 92.3327 379.024 92.422C377.944 92.5153 376.848 92.4764 375.764 92.4298C375.096 92.3987 374.439 92.2356 373.767 92.1695C373.138 92.1074 372.474 92.0297 371.852 91.7577C371.262 91.4974 370.613 91.377 370.003 91.1594C367.866 90.398 365.92 89.2986 364.374 87.6164C363.154 86.2916 362.264 84.7377 361.666 83.04C361.538 82.6787 361.46 82.263 361.398 81.8745C361.32 81.3889 361.378 80.8839 361.378 80.3361H361.386Z" fill="white"/>
<path d="M254.92 66.1367H248.821C247.306 66.1367 245.794 66.1367 244.279 66.1367C243.953 66.1367 243.813 66.1406 243.697 65.69C243.316 64.2098 241.781 63.1337 240.258 63.1104C239.481 63.0987 238.705 63.1259 237.931 63.1026C237.318 63.0832 236.781 63.3318 236.269 63.5882C235.367 64.0389 235.169 64.8159 235.577 65.721C235.865 66.3582 236.308 66.7739 236.941 67.0769C238.285 67.7179 239.707 68.0908 241.136 68.4716C243.646 69.1475 246.214 69.6448 248.642 70.585C249.843 71.0473 250.992 71.6883 252.061 72.4536C253.459 73.452 254.536 74.6602 255.177 76.2725C255.53 77.1621 255.853 78.0479 255.849 79.0191C255.849 79.7961 255.868 80.5692 255.845 81.3462C255.79 83.0983 255.215 84.7027 254.295 86.1673C253.782 86.9832 253.285 87.8378 252.5 88.4517C250.946 89.6676 249.279 90.6894 247.38 91.2643C246.3 91.5907 245.208 91.8743 244.07 92.018C243.401 92.1035 242.702 92.0607 242.073 92.2317C240.861 92.5619 239.649 92.391 238.436 92.4259C237.885 92.4415 237.341 92.4881 236.774 92.2395C236.292 92.0297 235.643 92.3638 235.138 91.9714C233.907 91.952 232.823 91.4003 231.673 91.0779C231.028 90.8992 230.434 90.6117 229.897 90.3048C228.394 89.4462 226.988 88.405 225.9 87.0376C225.181 86.1363 224.525 85.1883 224.132 84.0501C223.81 83.106 223.495 82.2008 223.441 81.1869C223.398 80.34 223.305 80.3322 224.109 80.3283C227.407 80.3244 230.705 80.3322 234.004 80.3167C234.454 80.3167 234.742 80.3788 234.653 80.9149C235.34 82.1659 236.113 83.277 237.632 83.7043C238.324 83.8985 238.984 84.1044 239.695 84.0423C240.367 83.9879 241.063 84.2482 241.715 83.8675C242.042 83.6771 242.461 83.9529 242.811 83.7004C243.223 83.4052 243.72 83.2031 244.085 82.8613C244.866 82.127 244.827 80.7013 244.062 80.1146C243.355 79.5746 242.659 78.8987 241.649 78.9297C240.577 78.347 239.377 78.2227 238.215 77.9469C237.127 77.6905 236.055 77.3564 234.971 77.0728C234.276 76.8902 233.518 76.8902 232.924 76.3968C231.731 76.3113 230.705 75.7286 229.703 75.1847C227.722 74.1125 225.935 72.7722 225.037 70.5927C224.548 69.4117 224.093 68.2074 224.159 66.8826C224.19 66.3038 224.163 65.721 224.163 65.1383C224.163 63.5183 225.115 61.2689 226.075 59.8742C227.306 58.0755 229.093 57.081 230.966 56.2341C232.108 55.7174 233.32 55.325 234.602 55.1463C235.15 55.0686 235.721 55.0686 236.253 54.9404C238.001 54.5247 239.765 54.8239 241.517 54.7267C241.711 54.7151 241.929 54.6646 242.096 54.7345C243.067 55.1463 244.139 54.9171 245.13 55.2784C245.973 55.5853 246.882 55.7291 247.686 56.1331C248.731 56.6575 249.699 57.2908 250.658 57.9823C252.166 59.0701 253.036 60.558 253.828 62.143C254.365 63.2153 254.644 64.373 254.912 65.5346C254.951 65.7094 254.916 65.9036 254.916 66.1406L254.92 66.1367Z" fill="white"/>
<path d="M222.975 91.5091H221.926C218.744 91.5091 215.562 91.5091 212.38 91.5091C211.623 91.5091 211.666 91.4858 211.343 90.7088C210.924 89.7026 210.655 88.6614 210.407 87.6048C210.317 87.2163 210.154 86.9094 209.575 86.8045C208.938 86.6879 208.317 86.6296 207.683 86.6258C205.59 86.618 203.492 86.6102 201.398 86.6296C200.846 86.6335 200.259 86.4626 199.743 86.8472C199.669 86.9016 199.514 86.8705 199.401 86.8511C198.616 86.7306 198.531 86.7656 198.309 87.5154C198.064 88.3468 197.851 89.1859 197.602 90.0134C197.458 90.4951 197.388 91.0856 197.066 91.3964C196.728 91.7228 196.11 91.4974 195.617 91.4974C192.513 91.5091 189.409 91.5052 186.305 91.5013C185.637 91.5013 185.633 91.4702 185.854 90.7865C186.406 89.0771 187.024 87.3911 187.622 85.7011C188.329 83.7082 189.013 81.6997 189.762 79.7262C190.516 77.7526 191.142 75.7286 191.996 73.79C192.4 72.8732 192.579 71.8592 192.956 70.9307C193.511 69.5671 193.9 68.1491 194.467 66.7894C195.124 65.2005 195.695 63.5688 196.18 61.9216C196.476 60.9193 197.039 60.0102 197.198 58.9691C197.657 58.5689 197.517 57.9434 197.761 57.4578C197.987 57.0111 198.208 56.5332 198.27 56.0476C198.325 55.6397 198.496 55.6514 198.783 55.6514C202.47 55.6552 206.153 55.6514 209.84 55.6514C209.878 55.6514 209.917 55.6514 209.956 55.6514C210.356 55.628 210.539 55.8223 210.655 56.2108C210.943 57.1742 211.23 58.1455 211.634 59.0584C212.027 59.9481 212.202 60.9038 212.66 61.7779C213.037 62.5005 213.126 63.3668 213.453 64.1205C214.132 65.7055 214.533 67.3838 215.212 68.9766C215.888 70.5578 216.312 72.2399 216.949 73.8405C217.602 75.4722 218.087 77.1621 218.721 78.8054C219.338 80.406 219.882 82.0493 220.453 83.6732C220.943 85.0563 221.382 86.4587 221.953 87.8184C222.31 88.6731 222.605 89.5628 222.947 90.4291C223.064 90.7205 222.967 91.0973 222.967 91.4974L222.975 91.5091ZM200.869 79.1318H208.115C207.94 78.6112 207.765 78.145 207.629 77.671C207.307 76.5638 207.031 75.4411 206.685 74.3378C206.386 73.3782 206.06 72.4186 205.795 71.4552C205.527 70.4801 205.201 69.5205 204.987 68.5259C204.882 68.0365 204.556 67.5975 204.599 67.0652C204.611 66.9176 204.533 66.8516 204.408 66.836C204.23 66.8166 204.172 66.8982 204.121 67.0846C203.748 68.4405 203.348 69.7885 202.967 71.1405C202.575 72.5274 202.225 73.9299 201.79 75.3051C201.464 76.3346 201.409 77.4418 200.885 78.4169C200.792 78.5918 200.873 78.8637 200.873 79.1279L200.869 79.1318Z" fill="white"/>
<path d="M257.014 55.6824H289.861V57.9978C289.861 60.1307 289.865 62.2635 289.861 64.3963C289.861 65.0567 289.721 65.2005 289.069 65.2005C286.236 65.2082 283.4 65.2005 280.568 65.2005H279.38V66.4087C279.38 73.2345 279.391 80.0603 279.372 86.886C279.368 88.4012 279.586 89.9357 279.018 91.5052H277.511C274.523 91.5052 271.532 91.5052 268.545 91.5052C267.515 91.5052 267.5 91.4936 267.5 90.4835C267.5 82.4534 267.5 74.4271 267.5 66.397V65.2005H263.972C261.913 65.2005 259.858 65.2044 257.799 65.2005C257.154 65.2005 257.018 65.0528 257.018 64.3846C257.014 61.5137 257.018 58.6427 257.018 55.6786L257.014 55.6824Z" fill="white"/>
<path d="M143.326 83.1293H127.27C127.037 83.1293 126.804 83.1371 126.57 83.1293C126.015 83.1099 125.859 82.9545 125.856 82.3679C125.844 81.1675 125.856 79.967 125.856 78.7627C125.856 78.4908 125.844 78.2188 125.856 77.9507C125.879 77.5312 126.065 77.3408 126.466 77.3175C126.737 77.302 127.009 77.3175 127.281 77.3175H140.478V69.198H125.91V64.0466H143.326V83.1332V83.1293Z" fill="#028752"/>
<path d="M67.8539 73.7356C68.0404 74.6408 67.6635 75.6781 67.5586 76.7231C67.4382 77.9158 67.0963 79.1123 66.4864 80.2234C65.8298 81.42 64.9052 82.2902 63.8291 83.0478C63.5766 83.2265 63.227 83.2925 62.9123 83.3547C60.8144 83.7703 59.1245 83.8869 57.1121 82.6476C56.2768 82.1309 55.7446 81.3229 55.2396 80.4643C54.6335 79.4387 54.4199 78.3159 54.0702 77.2165C53.8177 76.4279 53.876 75.6198 53.6778 74.8273C53.4758 74.0231 53.5108 73.1063 53.6662 72.2827C53.8682 71.2104 53.7672 70.0683 54.3072 69.0621C54.2528 67.8849 54.9637 66.9565 55.5426 66.094C56.4672 64.7187 57.7298 63.6815 59.5518 63.53C60.053 63.4872 60.5736 63.2813 61.0864 63.3474C62.0576 63.4795 63.0366 63.6892 63.8796 64.1749C64.8897 64.7576 65.6706 65.5967 66.2222 66.6612C66.9876 68.1336 67.4848 69.6526 67.6519 71.3231C67.7257 72.0651 67.8189 72.8071 67.85 73.7279L67.8539 73.7356Z" fill="#028752"/>
<path d="M146.655 99.5042L147.11 101.835C147.227 102.43 147.343 103.059 147.436 103.712H147.46C147.576 103.059 147.739 102.406 147.879 101.847L148.485 99.5042H149.884L150.455 101.777C150.606 102.418 150.758 103.059 150.874 103.712H150.898C150.979 103.059 151.096 102.418 151.224 101.765L151.714 99.5042H153.45L151.702 105.203H150.035L149.499 103.199C149.359 102.639 149.254 102.127 149.138 101.427H149.115C149.01 102.138 148.893 102.663 148.742 103.199L148.171 105.203H146.504L144.849 99.5042H146.655Z" fill="white"/>
<path d="M155.723 99.5042L156.177 101.835C156.294 102.43 156.41 103.059 156.504 103.712H156.527C156.644 103.059 156.807 102.406 156.947 101.847L157.553 99.5042H158.951L159.522 101.777C159.674 102.418 159.825 103.059 159.942 103.712H159.965C160.047 103.059 160.163 102.418 160.291 101.765L160.781 99.5042H162.518L160.769 105.203H159.103L158.567 103.199C158.427 102.639 158.322 102.127 158.205 101.427H158.182C158.077 102.138 157.961 102.663 157.809 103.199L157.238 105.203H155.571L153.916 99.5042H155.723Z" fill="white"/>
<path d="M164.79 99.5042L165.245 101.835C165.361 102.43 165.478 103.059 165.571 103.712H165.594C165.711 103.059 165.874 102.406 166.014 101.847L166.62 99.5042H168.019L168.59 101.777C168.741 102.418 168.893 103.059 169.009 103.712H169.033C169.114 103.059 169.231 102.418 169.359 101.765L169.848 99.5042H171.585L169.837 105.203H168.17L167.634 103.199C167.494 102.639 167.389 102.127 167.273 101.427H167.249C167.144 102.138 167.028 102.663 166.876 103.199L166.305 105.203H164.639L162.984 99.5042H164.79Z" fill="white"/>
<path d="M171.725 104.259C171.725 103.63 172.156 103.175 172.774 103.175C173.391 103.175 173.811 103.618 173.811 104.259C173.811 104.9 173.391 105.332 172.762 105.332C172.133 105.332 171.725 104.877 171.725 104.259Z" fill="white"/>
<path d="M174.883 96.9285H176.655V100.18H176.678C176.865 99.9355 177.098 99.749 177.377 99.5975C177.634 99.4576 177.972 99.376 178.298 99.376C179.429 99.376 180.291 100.157 180.291 101.87V105.203H178.519V102.068C178.519 101.322 178.263 100.81 177.599 100.81C177.133 100.81 176.841 101.113 176.713 101.427C176.666 101.544 176.655 101.695 176.655 101.824V105.203H174.883V96.9285Z" fill="white"/>
<path d="M187.342 102.29C187.342 104.376 185.862 105.332 184.335 105.332C182.669 105.332 181.387 104.236 181.387 102.395C181.387 100.553 182.599 99.376 184.428 99.376C186.258 99.376 187.342 100.576 187.342 102.29ZM183.216 102.348C183.216 103.327 183.624 104.061 184.382 104.061C185.069 104.061 185.512 103.374 185.512 102.348C185.512 101.497 185.186 100.635 184.382 100.635C183.531 100.635 183.216 101.509 183.216 102.348Z" fill="white"/>
<path d="M188.438 96.9285H190.209V105.203H188.438V96.9285Z" fill="white"/>
<path d="M193.006 102.919C193.065 103.653 193.787 104.003 194.615 104.003C195.221 104.003 195.71 103.921 196.188 103.77L196.421 104.97C195.838 105.203 195.127 105.32 194.358 105.32C192.424 105.32 191.316 104.201 191.316 102.418C191.316 100.973 192.214 99.376 194.195 99.376C196.037 99.376 196.736 100.81 196.736 102.22C196.736 102.523 196.701 102.791 196.678 102.919H193.006ZM195.093 101.707C195.093 101.276 194.906 100.553 194.09 100.553C193.344 100.553 193.041 101.229 192.995 101.707H195.093Z" fill="white"/>
<path d="M197.796 101.322C197.796 100.611 197.773 100.005 197.75 99.5042H199.242L199.323 100.273H199.358C199.603 99.9121 200.104 99.376 201.083 99.376C201.817 99.376 202.4 99.749 202.645 100.343H202.668C202.878 100.052 203.134 99.8189 203.402 99.6557C203.717 99.4693 204.067 99.376 204.486 99.376C205.582 99.376 206.409 100.145 206.409 101.847V105.203H204.684V102.103C204.684 101.276 204.416 100.798 203.845 100.798C203.437 100.798 203.146 101.078 203.029 101.416C202.983 101.544 202.959 101.73 202.959 101.87V105.203H201.235V102.01C201.235 101.287 200.978 100.798 200.419 100.798C199.964 100.798 199.696 101.148 199.591 101.439C199.533 101.579 199.521 101.742 199.521 101.882V105.203H197.796V101.322Z" fill="white"/>
<path d="M211.06 105.203L210.955 104.632H210.92C210.547 105.087 209.964 105.332 209.288 105.332C208.134 105.332 207.447 104.492 207.447 103.583C207.447 102.103 208.775 101.392 210.791 101.404V101.322C210.791 101.019 210.628 100.588 209.754 100.588C209.171 100.588 208.554 100.786 208.181 101.019L207.854 99.8772C208.251 99.6557 209.032 99.376 210.069 99.376C211.969 99.376 212.575 100.495 212.575 101.835V103.816C212.575 104.364 212.598 104.889 212.656 105.203H211.06ZM210.85 102.511C209.917 102.5 209.195 102.721 209.195 103.409C209.195 103.863 209.498 104.085 209.894 104.085C210.337 104.085 210.698 103.793 210.815 103.432C210.838 103.339 210.85 103.234 210.85 103.129V102.511Z" fill="white"/>
<path d="M213.962 103.653C214.288 103.851 214.964 104.085 215.488 104.085C216.013 104.085 216.246 103.898 216.246 103.607C216.246 103.315 216.071 103.175 215.407 102.954C214.23 102.558 213.775 101.917 213.787 101.241C213.787 100.18 214.696 99.376 216.106 99.376C216.77 99.376 217.365 99.5276 217.714 99.7024L217.4 100.926C217.143 100.786 216.654 100.6 216.164 100.6C215.733 100.6 215.488 100.775 215.488 101.066C215.488 101.334 215.71 101.474 216.409 101.719C217.493 102.092 217.947 102.639 217.959 103.478C217.959 104.539 217.12 105.32 215.488 105.32C214.742 105.32 214.078 105.157 213.647 104.924L213.962 103.653Z" fill="white"/>
<path d="M221.013 97.8726V99.5042H222.283V100.81H221.013V102.872C221.013 103.56 221.176 103.875 221.712 103.875C221.933 103.875 222.108 103.851 222.236 103.828L222.248 105.168C222.015 105.262 221.595 105.32 221.094 105.32C220.523 105.32 220.045 105.122 219.766 104.83C219.439 104.492 219.276 103.945 219.276 103.141V100.81H218.519V99.5042H219.276V98.2688L221.013 97.8726Z" fill="white"/>
<path d="M224.614 102.919C224.672 103.653 225.395 104.003 226.222 104.003C226.828 104.003 227.318 103.921 227.796 103.77L228.029 104.97C227.446 105.203 226.735 105.32 225.966 105.32C224.031 105.32 222.924 104.201 222.924 102.418C222.924 100.973 223.821 99.376 225.803 99.376C227.644 99.376 228.343 100.81 228.343 102.22C228.343 102.523 228.308 102.791 228.285 102.919H224.614ZM226.7 101.707C226.7 101.276 226.514 100.553 225.698 100.553C224.952 100.553 224.649 101.229 224.602 101.707H226.7Z" fill="white"/>
<path d="M229.404 101.381C229.404 100.542 229.381 99.9937 229.357 99.5042H230.884L230.942 100.553H230.989C231.28 99.7257 231.98 99.376 232.527 99.376C232.691 99.376 232.772 99.376 232.9 99.3993V101.066C232.772 101.043 232.621 101.019 232.423 101.019C231.77 101.019 231.327 101.369 231.211 101.917C231.187 102.033 231.176 102.173 231.176 102.313V105.203H229.404V101.381Z" fill="white"/>
<path d="M233.821 103.653C234.148 103.851 234.824 104.085 235.348 104.085C235.872 104.085 236.106 103.898 236.106 103.607C236.106 103.315 235.931 103.175 235.266 102.954C234.089 102.558 233.635 101.917 233.646 101.241C233.646 100.18 234.555 99.376 235.966 99.376C236.63 99.376 237.224 99.5276 237.574 99.7024L237.259 100.926C237.003 100.786 236.513 100.6 236.024 100.6C235.593 100.6 235.348 100.775 235.348 101.066C235.348 101.334 235.569 101.474 236.269 101.719C237.353 102.092 237.807 102.639 237.819 103.478C237.819 104.539 236.98 105.32 235.348 105.32C234.602 105.32 233.938 105.157 233.507 104.924L233.821 103.653Z" fill="white"/>
<path d="M238.646 104.259C238.646 103.63 239.077 103.175 239.695 103.175C240.313 103.175 240.732 103.618 240.732 104.259C240.732 104.9 240.313 105.332 239.684 105.332C239.054 105.332 238.646 104.877 238.646 104.259Z" fill="white"/>
<path d="M246.082 105.064C245.767 105.203 245.173 105.32 244.497 105.32C242.656 105.32 241.478 104.201 241.478 102.406C241.478 100.74 242.621 99.376 244.742 99.376C245.208 99.376 245.721 99.4576 246.094 99.5975L245.814 100.914C245.604 100.821 245.289 100.74 244.823 100.74C243.891 100.74 243.285 101.404 243.297 102.336C243.297 103.385 243.996 103.933 244.858 103.933C245.278 103.933 245.604 103.863 245.872 103.758L246.082 105.064Z" fill="white"/>
<path d="M252.562 102.29C252.562 104.376 251.082 105.332 249.555 105.332C247.888 105.332 246.606 104.236 246.606 102.395C246.606 100.553 247.819 99.376 249.648 99.376C251.478 99.376 252.562 100.576 252.562 102.29ZM248.436 102.348C248.436 103.327 248.844 104.061 249.602 104.061C250.289 104.061 250.732 103.374 250.732 102.348C250.732 101.497 250.406 100.635 249.602 100.635C248.751 100.635 248.436 101.509 248.436 102.348Z" fill="white"/>
<path d="M253.133 104.259C253.133 103.63 253.564 103.175 254.182 103.175C254.8 103.175 255.219 103.618 255.219 104.259C255.219 104.9 254.8 105.332 254.17 105.332C253.541 105.332 253.133 104.877 253.133 104.259Z" fill="white"/>
<path d="M261.664 103.374C261.664 104.12 261.688 104.726 261.711 105.203H260.173L260.091 104.399H260.056C259.835 104.749 259.298 105.332 258.273 105.332C257.119 105.332 256.268 104.609 256.268 102.849V99.5042H258.051V102.569C258.051 103.397 258.319 103.898 258.937 103.898C259.427 103.898 259.706 103.56 259.823 103.28C259.87 103.175 259.881 103.036 259.881 102.896V99.5042H261.664V103.374Z" fill="white"/>
<path d="M264.858 101.905H264.881C265.009 101.672 265.149 101.439 265.289 101.217L266.443 99.5042H268.576L266.536 101.812L268.867 105.203H266.688L265.312 102.861L264.858 103.42V105.203H263.086V96.9285H264.858V101.905Z" fill="white"/>
<path d="M302.277 97.4531C302.895 97.3599 303.629 97.29 304.433 97.29C305.89 97.29 306.927 97.6279 307.615 98.269C308.314 98.91 308.722 99.819 308.722 101.089C308.722 102.36 308.326 103.42 307.592 104.143C306.858 104.877 305.645 105.273 304.119 105.273C303.396 105.273 302.79 105.238 302.277 105.18V97.4531ZM303.291 104.399C303.548 104.446 303.921 104.458 304.317 104.458C306.485 104.458 307.662 103.246 307.662 101.124C307.673 99.2713 306.624 98.0941 304.48 98.0941C303.955 98.0941 303.559 98.1408 303.291 98.199V104.399Z" fill="white"/>
<path d="M314.107 101.521H311.053V104.353H314.456V105.203H310.039V97.3481H314.282V98.1989H311.053V100.681H314.107V101.521Z" fill="white"/>
<path d="M322.393 101.754C322.335 100.658 322.265 99.3411 322.277 98.3621H322.242C321.974 99.2828 321.647 100.262 321.251 101.346L319.864 105.157H319.095L317.825 101.416C317.452 100.308 317.137 99.2945 316.916 98.3621H316.892C316.869 99.3411 316.811 100.658 316.741 101.835L316.531 105.203H315.564L316.111 97.3481H317.405L318.745 101.148C319.072 102.115 319.34 102.977 319.538 103.793H319.573C319.771 103.001 320.051 102.138 320.4 101.148L321.799 97.3481H323.093L323.582 105.203H322.591L322.393 101.754Z" fill="white"/>
<path d="M326.519 98.2106H324.13V97.3481H329.946V98.2106H327.545V105.203H326.519V98.2106Z" fill="white"/>
<path d="M334.887 101.521H331.834V104.353H335.237V105.203H330.82V97.3481H335.062V98.1989H331.834V100.681H334.887V101.521Z" fill="white"/>
<path d="M342.043 104.947C341.67 105.133 340.924 105.32 339.969 105.32C337.754 105.32 336.088 103.921 336.088 101.346C336.088 98.77 337.754 97.2199 340.19 97.2199C341.169 97.2199 341.787 97.4297 342.055 97.5695L341.81 98.397C341.426 98.2106 340.878 98.0707 340.225 98.0707C338.384 98.0707 337.16 99.2478 337.16 101.311C337.16 103.234 338.267 104.469 340.178 104.469C340.796 104.469 341.426 104.341 341.833 104.143L342.043 104.947Z" fill="white"/>
<path d="M344.327 97.3481V100.635H348.127V97.3481H349.153V105.203H348.127V101.521H344.327V105.203H343.314V97.3481H344.327Z" fill="white"/>
<path d="M353.379 97.3481H354.393V104.353H357.75V105.203H353.379V97.3481Z" fill="white"/>
<path d="M359.894 97.3481V105.203H358.88V97.3481H359.894Z" fill="white"/>
<path d="M368.286 101.754C368.228 100.658 368.158 99.3411 368.169 98.3621H368.134C367.866 99.2828 367.54 100.262 367.144 101.346L365.757 105.157H364.988L363.717 101.416C363.344 100.308 363.03 99.2945 362.808 98.3621H362.785C362.761 99.3411 362.703 100.658 362.633 101.835L362.423 105.203H361.456L362.004 97.3481H363.298L364.638 101.148C364.964 102.115 365.232 102.977 365.43 103.793H365.465C365.663 103.001 365.943 102.138 366.293 101.148L367.691 97.3481H368.985L369.475 105.203H368.484L368.286 101.754Z" fill="white"/>
<path d="M372.05 97.3481V105.203H371.036V97.3481H372.05Z" fill="white"/>
<path d="M375.314 98.2106H372.924V97.3481H378.74V98.2106H376.339V105.203H375.314V98.2106Z" fill="white"/>
<path d="M383.682 101.521H380.628V104.353H384.031V105.203H379.614V97.3481H383.857V98.1989H380.628V100.681H383.682V101.521Z" fill="white"/>
<path d="M385.348 97.453C385.966 97.3598 386.7 97.2898 387.504 97.2898C388.961 97.2898 389.999 97.6278 390.686 98.2688C391.385 98.9099 391.793 99.8189 391.793 101.089C391.793 102.36 391.397 103.42 390.663 104.143C389.929 104.877 388.717 105.273 387.19 105.273C386.467 105.273 385.861 105.238 385.348 105.18V97.453ZM386.362 104.399C386.619 104.446 386.992 104.458 387.388 104.458C389.556 104.458 390.733 103.245 390.733 101.124C390.744 99.2711 389.696 98.094 387.551 98.094C387.027 98.094 386.63 98.1406 386.362 98.1989V104.399Z" fill="white"/>
</g>
<defs>
<clipPath id="clip0_440_114">
<rect width="394" height="146.236" fill="white"/>
</clipPath>
</defs>
</svg>
