<svg width="237" height="200" viewBox="0 0 237 200" fill="none" xmlns="http://www.w3.org/2000/svg">
<path d="M24.3447 133.944H79.866C72.8417 125.957 68.3191 115.854 67.2607 104.596H67.0682H18.5713H0V113.641H19.341C20.3995 120.665 22.0353 127.497 24.3447 133.944Z" fill="white"/>
<path d="M212.559 133.944H157.038C164.062 125.957 168.585 115.854 169.643 104.596H169.835H218.429H237V113.641H217.659C216.6 120.665 214.868 127.497 212.559 133.944Z" fill="white"/>
<path d="M208.806 142.989H146.549C142.797 145.395 138.755 147.415 134.521 148.762C129.518 150.398 124.129 151.361 118.452 151.361C112.775 151.361 107.482 150.495 102.382 148.762C98.0523 147.319 94.0109 145.395 90.3544 142.989H28.1936H7.89029V152.034H33.101C50.71 180.805 82.2715 199.954 118.452 199.954C154.632 199.954 186.29 180.709 203.803 152.034H229.013V142.989H208.806Z" fill="#139A48"/>
<path d="M217.563 86.4093C210.923 37.6236 169.066 0 118.548 0C68.0305 0 26.173 37.6236 19.5335 86.4093H0V95.4543H18.5713H67.1644H67.3569C69.6663 69.1851 91.7016 48.6894 118.452 48.6894C145.298 48.6894 167.238 69.2814 169.547 95.4543H169.739H218.333H236.904V86.4093H217.563Z" fill="#139A48"/>
</svg>
