<svg width="70" height="70" viewBox="0 0 70 70" fill="none" xmlns="http://www.w3.org/2000/svg">
<mask id="mask0_10_621" style="mask-type:alpha" maskUnits="userSpaceOnUse" x="8" y="8" width="54" height="54">
<path d="M8.75 16.75C8.75 12.9788 8.75 11.0931 9.92157 9.92157C11.0931 8.75 12.9788 8.75 16.75 8.75H53.25C57.0212 8.75 58.9069 8.75 60.0784 9.92157C61.25 11.0931 61.25 12.9788 61.25 16.75V53.25C61.25 57.0212 61.25 58.9069 60.0784 60.0784C58.9069 61.25 57.0212 61.25 53.25 61.25H16.75C12.9788 61.25 11.0931 61.25 9.92157 60.0784C8.75 58.9069 8.75 57.0212 8.75 53.25V16.75Z" fill="#273B4A"/>
</mask>
<g mask="url(#mask0_10_621)">
<path d="M22.0723 30.4277L11.2694 41.2306C10.0287 42.4713 9.40831 43.0917 9.10362 43.8857C8.79893 44.6797 8.84504 45.5558 8.93726 47.308L10.2083 71.4583H61.25V51.6879C61.25 49.9333 61.25 49.056 60.904 48.2791C60.558 47.5022 59.9059 46.9153 58.6017 45.7415L49.4875 37.5387C48.1519 36.3367 47.4841 35.7357 46.6866 35.7566C45.8891 35.7776 45.2538 36.4129 43.9832 37.6835L37.0888 44.5778C36.1424 45.5242 35.6692 45.9974 35.1482 45.8971C34.6272 45.7968 34.3636 45.1817 33.8363 43.9515L28.5773 31.6804C27.5229 29.22 26.9956 27.9898 25.9536 27.7891C24.9115 27.5885 23.9651 28.5349 22.0723 30.4277L22.0723 30.4277Z" fill="#139A48" stroke="#139A48"/>
</g>
<path d="M8.75 16.75C8.75 12.9788 8.75 11.0931 9.92157 9.92157C11.0931 8.75 12.9788 8.75 16.75 8.75H53.25C57.0212 8.75 58.9069 8.75 60.0784 9.92157C61.25 11.0931 61.25 12.9788 61.25 16.75V53.25C61.25 57.0212 61.25 58.9069 60.0784 60.0784C58.9069 61.25 57.0212 61.25 53.25 61.25H16.75C12.9788 61.25 11.0931 61.25 9.92157 60.0784C8.75 58.9069 8.75 57.0212 8.75 53.25V16.75Z" stroke="#139A48" stroke-width="4.2"/>
<circle cx="48.125" cy="21.875" r="4.375" fill="#139A48"/>
</svg>
