<svg width="24" height="25" viewBox="0 0 24 25" fill="none" xmlns="http://www.w3.org/2000/svg">
<path d="M2 12.5L1.21913 11.8753L0.719375 12.5L1.21913 13.1247L2 12.5ZM11 13.5C11.5523 13.5 12 13.0523 12 12.5C12 11.9477 11.5523 11.5 11 11.5V13.5ZM5.21913 6.8753L1.21913 11.8753L2.78087 13.1247L6.78087 8.1247L5.21913 6.8753ZM1.21913 13.1247L5.21913 18.1247L6.78087 16.8753L2.78087 11.8753L1.21913 13.1247ZM2 13.5H11V11.5H2V13.5Z" fill="#F5FBFF"/>
<path d="M10 8.63193V7.88851C10 6.27017 10 5.461 10.474 4.9015C10.9479 4.34201 11.7461 4.20899 13.3424 3.94293L15.0136 3.6644C18.2567 3.12388 19.8782 2.85363 20.9391 3.75232C22 4.65102 22 6.29493 22 9.58276V15.4172C22 18.7051 22 20.349 20.9391 21.2477C19.8782 22.1464 18.2567 21.8761 15.0136 21.3356L13.3424 21.0571C11.7461 20.791 10.9479 20.658 10.474 20.0985C10 19.539 10 18.7298 10 17.1115V16.566" stroke="#F5FBFF" stroke-width="2"/>
</svg>
