<svg width="26" height="27" viewBox="0 0 26 27" fill="none" xmlns="http://www.w3.org/2000/svg">
<path d="M9.1581 25.2806L9.47433 26.2293L9.47433 26.2293L9.1581 25.2806ZM17.1581 22.614L16.8419 21.6653L16.8419 21.6653L17.1581 22.614ZM24.7071 6.29289L25.4142 7L24.7071 6.29289ZM17.7929 13.2071L17.0858 12.5L17.7929 13.2071ZM1.29289 6.29289L0.585786 7L1.29289 6.29289ZM2 2.5H24V0.5H2V2.5ZM2 5.58579V2.5H0V5.58579H2ZM8.9142 12.5L2 5.58579L0.585786 7L7.49999 13.9142L8.9142 12.5ZM7.49999 13.9142V24.8063H9.49999V13.9142H7.49999ZM7.49999 24.8063C7.49999 25.8301 8.50303 26.5531 9.47433 26.2293L8.84188 24.332C9.16564 24.224 9.49999 24.465 9.49999 24.8063H7.49999ZM9.47433 26.2293L17.4743 23.5627L16.8419 21.6653L8.84188 24.332L9.47433 26.2293ZM17.4743 23.5627C18.0868 23.3585 18.5 22.7853 18.5 22.1396H16.5C16.5 21.9244 16.6377 21.7333 16.8419 21.6653L17.4743 23.5627ZM18.5 22.1396V13.9142H16.5V22.1396H18.5ZM24 5.58579L17.0858 12.5L18.5 13.9142L25.4142 7L24 5.58579ZM24 2.5V5.58579H26V2.5H24ZM25.4142 7C25.7893 6.62493 26 6.11622 26 5.58579H24L24 5.58579L25.4142 7ZM18.5 13.9142L18.5 13.9142L17.0858 12.5C16.7107 12.8751 16.5 13.3838 16.5 13.9142H18.5ZM7.49999 13.9142L7.49999 13.9142H9.49999C9.49999 13.3838 9.28928 12.8751 8.9142 12.5L7.49999 13.9142ZM0 5.58579C0 6.11622 0.210713 6.62493 0.585786 7L2 5.58579L2 5.58579H0ZM24 2.5L24 2.5H26C26 1.39543 25.1046 0.5 24 0.5V2.5ZM2 0.5C0.895431 0.5 0 1.39543 0 2.5H2L2 2.5V0.5Z" fill="#139A48"/>
</svg>
